# Blender v2.79 (sub 0) OBJ File: 'Spider.blend'
# www.blender.org
mtllib SLeg1.mtl
o Leg1_Circle.000
v 0.046653 -0.017261 0.000116
v 0.033034 -0.017261 0.032996
v 0.000153 -0.017261 0.046616
v -0.032728 -0.017261 0.032996
v -0.046348 -0.017261 0.000116
v -0.032728 -0.017261 -0.032765
v 0.000153 -0.017261 -0.046385
v 0.033034 -0.017261 -0.032765
v 0.046653 -0.595884 0.000116
v 0.033034 -0.595884 0.032996
v 0.000153 -0.595884 0.046616
v -0.032728 -0.595884 0.032996
v -0.046348 -0.595884 0.000116
v -0.032728 -0.595884 -0.032765
v 0.000153 -0.595884 -0.046385
v 0.033034 -0.595884 -0.032765
v 0.030112 0.016359 0.000116
v 0.021337 0.016359 0.021300
v 0.000153 0.016368 0.030074
v -0.021031 0.016368 0.021300
v -0.029806 0.016368 0.000116
v -0.021031 0.016368 -0.021068
v 0.000153 0.016368 -0.029843
v 0.021337 0.016359 -0.021068
v 0.025899 -0.632674 0.000116
v 0.018358 -0.632674 0.018321
v 0.000153 -0.632869 0.025862
v -0.018053 -0.632869 0.018321
v -0.025593 -0.632869 0.000116
v -0.018053 -0.632869 -0.018090
v 0.000153 -0.632869 -0.025631
v 0.018358 -0.632674 -0.018090
vn 0.9239 0.0000 0.3827
vn 0.9239 0.0000 -0.3827
vn -0.3827 -0.0000 -0.9239
vn -0.9239 -0.0000 0.3827
vn 0.3827 0.0000 0.9239
vn 0.3827 -0.0000 -0.9239
vn -0.9239 0.0000 -0.3827
vn -0.3827 0.0000 0.9239
vn 0.8411 0.4138 0.3484
vn 0.8411 0.4138 -0.3484
vn -0.3484 0.4137 -0.8411
vn -0.8411 0.4137 0.3484
vn 0.3484 0.4138 0.8411
vn 0.3484 0.4138 -0.8411
vn -0.8411 0.4137 -0.3484
vn -0.3484 0.4137 0.8411
vn 0.0002 1.0000 -0.0000
vn -0.8202 -0.4603 0.3397
vn 0.3411 -0.4612 0.8191
vn 0.3411 -0.4612 -0.8191
vn -0.8202 -0.4603 -0.3397
vn -0.3397 -0.4603 0.8202
vn 0.8193 -0.4622 0.3394
vn 0.8193 -0.4622 -0.3394
vn -0.3397 -0.4603 -0.8202
vn 0.0046 -1.0000 -0.0000
usemtl None
s off
f 2//1 10//1 9//1 1//1
f 1//2 9//2 16//2 8//2
f 7//3 15//3 14//3 6//3
f 5//4 13//4 12//4 4//4
f 3//5 11//5 10//5 2//5
f 8//6 16//6 15//6 7//6
f 6//7 14//7 13//7 5//7
f 4//8 12//8 11//8 3//8
f 1//9 17//9 18//9 2//9
f 8//10 24//10 17//10 1//10
f 6//11 22//11 23//11 7//11
f 4//12 20//12 21//12 5//12
f 2//13 18//13 19//13 3//13
f 7//14 23//14 24//14 8//14
f 5//15 21//15 22//15 6//15
f 3//16 19//16 20//16 4//16
f 18//17 17//17 24//17 23//17 22//17 21//17 20//17 19//17
f 13//18 29//18 28//18 12//18
f 11//19 27//19 26//19 10//19
f 16//20 32//20 31//20 15//20
f 14//21 30//21 29//21 13//21
f 12//22 28//22 27//22 11//22
f 10//23 26//23 25//23 9//23
f 9//24 25//24 32//24 16//24
f 15//25 31//25 30//25 14//25
f 26//26 27//26 28//26 29//26 30//26 31//26 32//26 25//26
